<svg version="1.1" id="Layer_1" xmlns="http://www.w3.org/2000/svg" xmlns:xlink="http://www.w3.org/1999/xlink" x="0px" y="0px"
	 width="48" height="48" viewBox="0 0 1024 1024" enable-background="new 0 0 1024 1024" xml:space="preserve">
<path fill="#fff" opacity="1.000000" stroke="none" 
	d="
M573.054565,542.000000 
	C573.017395,521.337341 572.944885,501.174622 572.974670,481.012085 
	C572.979065,478.030884 573.209595,474.999908 573.782898,472.079803 
	C575.124939,465.244293 579.376953,461.166534 586.338135,460.460388 
	C591.456848,459.941193 596.651062,459.980560 601.806335,460.071838 
	C605.378845,460.135071 606.759033,458.878021 606.918640,455.172363 
	C608.486145,418.790588 585.813965,382.486237 552.431946,367.365601 
	C524.701111,354.804688 497.029602,354.408600 469.274597,366.748627 
	C435.433350,381.794647 413.031128,417.711334 413.943115,454.653625 
	C414.048096,458.906281 415.688019,460.214203 419.647614,459.997040 
	C423.634827,459.778320 427.651764,459.774109 431.640503,459.976044 
	C441.346588,460.467407 447.192596,466.269501 447.221466,475.909760 
	C447.324097,510.235992 447.308472,544.562927 447.198578,578.889221 
	C447.170319,587.721863 441.546600,593.224854 432.679474,593.243713 
	C404.186035,593.304443 375.692017,593.278992 347.198792,593.160095 
	C338.383362,593.123291 333.298615,588.454712 332.197815,579.654480 
	C331.806946,576.529846 331.867615,573.336731 331.880798,570.175476 
	C332.015564,537.856384 332.175781,505.537445 332.347076,473.218536 
	C332.383911,466.270905 337.989410,460.672882 345.589813,460.187378 
	C349.574677,459.932861 353.606476,459.802368 357.578369,460.112183 
	C362.358398,460.485046 364.054871,458.629059 364.017670,453.884003 
	C363.878448,436.129761 367.985016,419.101501 374.862335,402.935028 
	C389.682922,368.096375 413.930847,341.536896 447.772339,324.399841 
	C467.690765,314.313324 489.259094,310.307312 511.585144,310.658875 
	C550.748962,311.275604 584.465942,325.404999 612.190796,352.842346 
	C635.563843,375.973053 650.298950,403.957214 655.070007,436.764862 
	C655.930176,442.679565 656.156372,448.702942 656.385010,454.687225 
	C656.538940,458.717163 658.260925,460.357605 662.278076,460.138428 
	C666.099243,459.929962 669.943115,460.011963 673.772888,460.115936 
	C681.644409,460.329590 687.315247,465.313171 688.433655,473.093903 
	C688.834656,475.883759 688.957886,478.733948 688.963196,481.557037 
	C689.007019,504.706848 688.997253,527.856750 688.994568,551.006653 
	C688.993469,560.334717 689.019348,569.657166 688.449524,578.982056 
	C687.911255,587.789185 683.259705,592.883118 674.371216,593.132812 
	C665.713928,593.376099 657.044373,593.175903 648.380249,593.185425 
	C628.884460,593.206726 609.388672,593.247803 589.892883,593.259827 
	C579.824707,593.266052 574.277405,588.333008 573.489441,578.471863 
	C572.532593,566.496338 573.252747,554.490479 573.054565,542.000000 
z"/>
<path fill="#fff" opacity="1.000000" stroke="none" 
	d="
M631.000000,662.795532 
	C638.986328,662.777283 646.473450,662.817932 653.958557,662.712708 
	C656.907166,662.671265 659.030334,663.593079 658.955383,666.800537 
	C658.765930,674.908020 659.909851,683.066345 657.519165,691.091187 
	C653.448486,704.755127 641.180969,712.790710 626.462524,711.153992 
	C613.423218,709.703918 602.730103,698.371887 601.987671,684.903259 
	C601.667603,679.096680 602.003357,673.256104 601.773865,667.441467 
	C601.632263,663.853699 603.258545,662.774658 606.544006,662.808044 
	C614.528442,662.889282 622.514587,662.810425 631.000000,662.795532 
z"/>
<path fill="#fff" opacity="1.000000" stroke="none" 
	d="
M398.999298,662.809082 
	C404.322815,662.799744 409.146545,662.781250 413.970184,662.789124 
	C416.094696,662.792603 418.220978,663.104126 418.233368,665.820923 
	C418.270416,673.944092 419.448853,682.155762 417.516785,690.163940 
	C414.255035,703.683228 401.530182,712.639282 387.753998,711.476868 
	C374.174988,710.331116 362.640076,698.500427 361.922760,684.709595 
	C361.620697,678.902039 361.941833,673.063843 361.715576,667.249817 
	C361.573181,663.591980 363.346802,662.701111 366.564270,662.731201 
	C377.208649,662.830811 387.854279,662.794678 398.999298,662.809082 
z"/>
<path fill="#fff" opacity="1.000000" stroke="none" 
	d="
M601.876099,634.679443 
	C601.894348,629.891846 601.980591,625.565430 601.907288,621.241821 
	C601.856812,618.264038 603.243408,617.047546 606.133423,617.050476 
	C622.103455,617.067017 638.073730,617.070801 654.043457,616.995361 
	C657.449524,616.979248 658.900940,618.598999 658.897400,621.829224 
	C658.892029,626.653259 658.824219,631.477905 658.878235,636.301208 
	C658.910522,639.182434 657.783020,640.498108 654.737305,640.481384 
	C638.435120,640.391602 622.131897,640.359192 605.830017,640.460754 
	C601.724548,640.486328 601.823242,637.927307 601.876099,634.679443 
z"/>
<path fill="#fff" opacity="1.000000" stroke="none" 
	d="
M407.933350,617.082764 
	C420.259796,616.870422 418.205383,617.531555 418.344421,627.136292 
	C418.390167,630.296265 418.272980,633.460693 418.395111,636.616760 
	C418.513367,639.672180 417.044464,640.709534 414.164886,640.692627 
	C398.038940,640.597717 381.912445,640.528992 365.786438,640.572937 
	C362.676880,640.581421 361.704926,639.185730 361.737457,636.339539 
	C361.792572,631.516785 361.864685,626.683105 361.606110,621.871399 
	C361.403992,618.110474 362.957458,616.936584 366.560181,616.975159 
	C380.187531,617.121277 393.817047,617.065674 407.933350,617.082764 
z"/>
</svg>