<svg version="1.1" id="Layer_1" xmlns="http://www.w3.org/2000/svg" xmlns:xlink="http://www.w3.org/1999/xlink" x="0px" y="0px"
	 width="100%" viewBox="0 0 1024 1024" enable-background="new 0 0 1024 1024" xml:space="preserve">
<path fill="#fff" opacity="1.000000" stroke="none" 
	d="
M718.005066,865.984741 
	C707.639038,866.065308 697.272949,866.145813 686.168884,865.818359 
	C681.946838,864.562561 677.426514,866.160706 675.628113,861.225830 
	C675.531311,860.960266 674.383301,861.077881 673.724609,861.017090 
	C673.397705,860.899841 673.247253,860.668030 673.478638,859.765625 
	C673.252563,858.469727 672.821106,857.729858 672.389648,856.989929 
	C668.517151,843.584839 664.566711,830.201721 660.792114,816.769165 
	C656.114075,800.121948 651.581665,783.433838 647.229370,766.228394 
	C647.129089,765.125183 646.785767,764.556946 646.442444,763.988708 
	C644.227600,756.350891 642.012695,748.713013 639.875000,740.333252 
	C639.695374,738.842651 639.438721,738.094055 638.750244,736.086304 
	C638.328796,738.285339 638.164429,739.142944 638.000122,740.000488 
	C634.653748,750.961792 631.417725,761.958252 627.940735,772.877869 
	C616.837524,807.747620 605.644897,842.588745 593.890991,877.719910 
	C592.571411,877.998230 591.847839,877.997620 591.124207,877.997009 
	C585.958984,862.148132 580.793823,846.299194 575.758423,829.705383 
	C575.379517,827.970581 574.870728,826.980713 574.362061,825.990845 
	C573.225342,822.247131 572.088684,818.503418 571.202332,814.230347 
	C571.089844,813.130920 570.726990,812.560852 570.364197,811.990723 
	C565.250122,795.575073 560.136108,779.159424 555.260986,762.204956 
	C555.123718,761.107666 554.747620,760.549194 554.371521,759.990662 
	C552.272827,753.190247 550.174072,746.389893 548.049683,738.845703 
	C547.593689,737.599609 547.163330,737.097290 546.732971,736.594971 
	C546.563171,737.622314 546.393372,738.649597 546.223572,739.676941 
	C545.788086,741.561646 545.352600,743.446411 544.489563,745.707031 
	C544.006531,746.710999 543.951050,747.339111 543.895630,747.967224 
	C541.314697,756.419006 538.733765,764.870850 535.682373,773.698608 
	C535.146606,774.718201 535.081360,775.361816 535.016113,776.005432 
	C534.349365,778.436951 533.682617,780.868469 532.589966,783.686829 
	C532.082947,784.707275 532.001831,785.340881 531.920715,785.974487 
	C525.933838,805.077026 519.937988,824.176697 513.963684,843.283142 
	C510.504730,854.345032 507.080383,865.417786 503.118256,876.660889 
	C501.707520,876.893372 500.819031,876.950684 499.930542,877.007996 
	C495.268219,862.930420 490.605896,848.852844 486.183777,834.243225 
	C486.038055,833.138733 485.652100,832.566223 485.266174,831.993774 
	C484.388824,829.472961 483.511475,826.952087 482.798065,823.734131 
	C484.096161,821.128479 483.919250,819.918823 481.338318,819.990356 
	C473.201233,794.116455 465.065063,768.242310 456.924255,742.369568 
	C456.527161,741.107605 456.089325,739.858459 455.208374,737.218872 
	C440.301849,785.939453 425.767365,833.444031 411.232910,880.948547 
	C410.923889,881.130859 410.614868,881.313110 410.305847,881.495361 
	C395.698395,834.961914 381.090912,788.428467 366.483459,741.895020 
	C366.062286,741.878174 365.641113,741.861267 365.219940,741.844421 
	C362.850342,749.846741 360.381165,757.821167 358.128601,765.856262 
	C349.144287,797.904968 340.175110,829.958313 331.368988,862.056152 
	C330.517212,865.160828 329.412140,866.371094 326.061920,866.366272 
	C272.736633,866.289612 219.411209,866.345276 166.085815,866.354065 
	C165.123535,866.354187 164.161224,866.150818 162.512192,865.965088 
	C173.734970,827.597046 184.864243,789.548584 195.993530,751.500183 
	C196.542587,751.486938 197.091660,751.473694 197.640717,751.460449 
	C209.531601,788.618408 221.422470,825.776367 233.313354,862.934387 
	C233.670197,863.001709 234.027039,863.069092 234.383896,863.136475 
	C262.482147,760.554688 290.580383,657.972961 318.678619,555.391174 
	C319.122437,555.426086 319.566254,555.460999 320.010071,555.495911 
	C334.859772,607.039429 349.709503,658.583008 364.920868,711.381775 
	C380.019287,660.373779 394.663300,610.901062 409.307312,561.428345 
	C409.789276,561.517822 410.271240,561.607239 410.753204,561.696716 
	C425.561829,611.248962 440.370453,660.801270 455.448425,711.254883 
	C470.579224,661.097595 485.451996,611.795593 500.324768,562.493652 
	C500.948486,562.477295 501.572205,562.460876 502.195923,562.444519 
	C517.149231,611.920593 532.102600,661.396667 547.201538,711.354553 
	C562.584534,661.101685 577.754456,611.544739 592.924438,561.987793 
	C593.513794,562.012817 594.103088,562.037903 594.692444,562.062927 
	C609.467041,611.684814 624.241638,661.306641 639.344421,712.030762 
	C655.774658,658.921082 671.834839,607.007690 687.895020,555.094360 
	C688.456177,555.053223 689.017334,555.012085 689.578552,554.970947 
	C714.188477,643.816284 738.798401,732.661621 763.258667,822.259521 
	C762.928345,824.654480 760.809326,827.112061 764.788086,827.005432 
	C768.211487,839.052856 771.634888,851.100281 774.700684,863.596924 
	C772.066650,864.363220 769.791565,864.942322 767.513306,864.955078 
	C752.734924,865.037964 737.955627,864.965271 723.177185,865.041138 
	C721.451599,865.049988 719.729004,865.655762 718.005066,865.984741 
z"/>
<path fill="#fff" opacity="1.000000" stroke="none" 
	d="
M493.000000,453.170715 
	C426.334564,453.194031 360.155060,452.414276 294.009735,453.578094 
	C261.412933,454.151611 236.369278,420.605927 242.491623,389.308441 
	C247.310013,364.676819 264.261230,347.273438 286.820068,343.520020 
	C290.574371,342.895355 294.452911,342.822845 298.274078,342.822418 
	C438.604797,342.806824 578.935486,342.827148 719.266235,342.849548 
	C757.375122,342.855621 776.216858,373.660095 775.909729,400.604034 
	C775.631531,425.009979 757.837341,447.281555 734.909485,452.309082 
	C731.375000,453.084106 727.638611,453.180298 723.995422,453.181793 
	C647.163635,453.212799 570.331787,453.185028 493.000000,453.170715 
M717.289124,399.474457 
	C717.120056,389.760834 712.297913,383.106140 703.492188,379.523438 
	C695.564514,376.297974 686.085632,378.656555 680.604004,384.678864 
	C674.344666,391.555573 673.251343,401.200958 677.830322,409.148773 
	C682.424988,417.123901 691.796509,421.579956 700.180847,419.776245 
	C709.924438,417.680115 716.309509,410.437286 717.289124,399.474457 
M336.667877,413.149811 
	C337.784668,411.508240 339.069824,409.955536 339.990601,408.210541 
	C345.391968,397.974243 340.464630,384.692688 329.533051,379.829285 
	C318.692627,375.006348 305.663666,380.555298 301.768219,391.654083 
	C298.632843,400.587341 301.980255,410.911316 309.786163,416.382751 
	C317.956451,422.109589 327.447906,421.134491 336.667877,413.149811 
z"/>
<path fill="#fff" opacity="1.000000" stroke="none" 
	d="
M463.000244,899.338379 
	C603.442139,899.338135 743.384033,899.338135 883.666016,899.338135 
	C883.666016,918.538452 883.666016,937.271057 883.666016,956.352539 
	C633.436707,956.352539 383.252655,956.352539 132.808487,956.352539 
	C132.808487,937.418579 132.808487,918.817261 132.808487,899.338684 
	C242.702682,899.338684 352.601440,899.338684 463.000244,899.338379 
z"/>
<path fill="#fff" opacity="1.000000" stroke="none" 
	d="
M530.000000,62.123451 
	C554.658081,62.174572 578.816284,62.198582 602.974243,62.284061 
	C629.833923,62.379097 651.772095,84.605545 652.085510,111.978760 
	C652.408447,140.174408 631.603882,163.055969 604.340820,163.191406 
	C540.531677,163.508423 476.719086,163.447540 412.909485,163.175537 
	C391.895660,163.085983 377.886688,151.304459 369.698761,132.933990 
	C360.988586,113.391716 364.854889,95.090378 378.530762,78.979820 
	C388.391998,67.362984 401.364166,62.176010 416.539124,62.180882 
	C454.192749,62.192978 491.846375,62.146439 530.000000,62.123451 
z"/>
<path fill="#fff" opacity="1.000000" stroke="none" 
	d="
M550.000000,263.917480 
	C571.318970,263.925262 592.137878,263.932526 612.956848,263.941040 
	C632.043030,263.948822 644.046875,274.911407 645.348572,293.854553 
	C645.744934,299.623566 645.409973,305.442780 645.409973,311.559845 
	C553.989075,311.559845 462.837067,311.559845 371.447021,311.559845 
	C371.447021,304.632690 370.655518,297.755066 371.600891,291.125122 
	C374.075409,273.770966 385.616547,264.023804 403.101074,263.988739 
	C451.900543,263.890839 500.700348,263.931549 550.000000,263.917480 
z"/>
<path fill="#fff" opacity="1.000000" stroke="none" 
	d="
M577.000000,483.961060 
	C600.102112,483.961884 622.704224,483.961884 645.987732,483.961884 
	C645.593323,492.124115 645.872864,499.822968 644.717651,507.300140 
	C642.638428,520.756897 632.454895,529.779358 618.925842,531.146057 
	C615.452026,531.497009 611.945435,531.673340 608.453735,531.676453 
	C541.476196,531.735901 474.498718,531.757996 407.521210,531.784668 
	C405.522064,531.785461 403.520660,531.806580 401.524078,531.725403 
	C383.385132,530.987549 372.172974,520.040955 371.223969,501.904846 
	C370.928833,496.264313 371.178009,490.595306 371.178009,483.960266 
	C439.741882,483.960266 508.120941,483.960266 577.000000,483.961060 
z"/>
<path fill="#fff" opacity="1.000000" stroke="none" 
	d="
M718.387146,866.115845 
	C719.729004,865.655762 721.451599,865.049988 723.177185,865.041138 
	C737.955627,864.965271 752.734924,865.037964 767.513306,864.955078 
	C769.791565,864.942322 772.066650,864.363220 774.770569,863.977844 
	C776.240173,860.637329 777.274292,857.362366 778.325928,854.093079 
	C789.224182,820.214539 800.123962,786.336426 811.039368,752.463379 
	C811.179565,752.028137 811.528137,751.660034 812.675049,749.837219 
	C824.353882,789.152466 835.695862,827.333618 847.255249,866.246826 
	C803.628540,866.246826 761.198853,866.246826 718.387146,866.115845 
z"/>
<path fill="#fff" opacity="1.000000" stroke="none" 
	d="
M479.036682,193.121918 
	C501.672791,193.108643 523.814270,193.094696 545.955750,193.092087 
	C546.279480,193.092041 546.603149,193.233536 547.335632,193.404266 
	C547.335632,206.395370 547.335632,219.486282 547.335632,233.114655 
	C521.247864,233.114655 494.927917,233.114655 468.434448,233.114655 
	C468.434448,219.824631 468.434448,206.764130 468.434448,193.122177 
	C471.973358,193.122177 475.257690,193.122177 479.036682,193.121918 
z"/>
<path fill="#fff" opacity="1.000000" stroke="none" 
	d="
M673.714966,861.419373 
	C674.383301,861.077881 675.531311,860.960266 675.628113,861.225830 
	C677.426514,866.160706 681.946838,864.562561 685.713135,865.699280 
	C683.709290,866.088257 681.391235,865.984070 679.144165,866.334778 
	C675.470154,866.908081 674.084961,865.050537 673.714966,861.419373 
z"/>
<path fill="#fff" opacity="1.000000" stroke="none" 
	d="
M499.924683,877.362427 
	C500.819031,876.950684 501.707520,876.893372 502.864624,876.929260 
	C502.812683,878.233887 502.492096,879.445312 501.920471,881.605347 
	C500.965881,879.750854 500.442383,878.733887 499.924683,877.362427 
z"/>
<path fill="#fff" opacity="1.000000" stroke="none" 
	d="
M764.813110,826.641602 
	C760.809326,827.112061 762.928345,824.654480 763.204468,822.620605 
	C763.812622,823.578735 764.325317,824.928223 764.813110,826.641602 
z"/>
<path fill="#fff" opacity="1.000000" stroke="none" 
	d="
M591.114014,878.359253 
	C591.847839,877.997620 592.571411,877.998230 593.656860,877.999634 
	C593.735352,879.003662 593.452026,880.006958 592.933777,881.842163 
	C592.057434,880.347778 591.580566,879.534607 591.114014,878.359253 
z"/>
<path fill="#fff" opacity="1.000000" stroke="none" 
	d="
M481.321655,820.328979 
	C483.919250,819.918823 484.096161,821.128479 482.817200,823.378052 
	C482.216614,822.701965 481.760803,821.684753 481.321655,820.328979 
z"/>
<path fill="#fff" opacity="1.000000" stroke="none" 
	d="
M638.318115,739.867310 
	C638.164429,739.142944 638.328796,738.285339 638.750244,736.086304 
	C639.438721,738.094055 639.695374,738.842651 639.917725,739.955688 
	C639.467590,740.124817 639.051880,739.929443 638.318115,739.867310 
z"/>
<path fill="#fff" opacity="1.000000" stroke="none" 
	d="
M546.516602,739.435669 
	C546.393372,738.649597 546.563171,737.622314 546.732971,736.594971 
	C547.163330,737.097290 547.593689,737.599609 548.041504,738.455627 
	C547.642517,738.937683 547.226135,739.066040 546.516602,739.435669 
z"/>
<path fill="#fff" opacity="1.000000" stroke="none" 
	d="
M574.344849,826.331970 
	C574.870728,826.980713 575.379517,827.970581 575.818359,829.348267 
	C575.274963,828.715088 574.801392,827.694092 574.344849,826.331970 
z"/>
<path fill="#fff" opacity="1.000000" stroke="none" 
	d="
M532.120056,785.773621 
	C532.001831,785.340881 532.082947,784.707275 532.431274,784.033264 
	C532.572205,784.519470 532.445801,785.046143 532.120056,785.773621 
z"/>
<path fill="#fff" opacity="1.000000" stroke="none" 
	d="
M570.316467,812.264893 
	C570.726990,812.560852 571.089844,813.130920 571.232544,813.848145 
	C570.764526,813.509888 570.516663,813.024475 570.316467,812.264893 
z"/>
<path fill="#fff" opacity="1.000000" stroke="none" 
	d="
M535.222656,775.809204 
	C535.081360,775.361816 535.146606,774.718201 535.488586,774.034790 
	C535.653320,774.534302 535.541260,775.073608 535.222656,775.809204 
z"/>
<path fill="#fff" opacity="1.000000" stroke="none" 
	d="
M485.229248,832.274414 
	C485.652100,832.566223 486.038055,833.138733 486.196228,833.861694 
	C485.709778,833.526550 485.451019,833.040771 485.229248,832.274414 
z"/>
<path fill="#fff" opacity="1.000000" stroke="none" 
	d="
M672.346436,857.302002 
	C672.821106,857.729858 673.252563,858.469727 673.506104,859.546936 
	C672.986511,859.127502 672.644897,858.370789 672.346436,857.302002 
z"/>
<path fill="#fff" opacity="1.000000" stroke="none" 
	d="
M646.396484,764.258362 
	C646.785767,764.556946 647.129089,765.125183 647.258789,765.838196 
	C646.813660,765.497986 646.582092,765.013000 646.396484,764.258362 
z"/>
<path fill="#fff" opacity="1.000000" stroke="none" 
	d="
M554.341614,760.262512 
	C554.747620,760.549194 555.123718,761.107666 555.289246,761.818420 
	C554.822998,761.491882 554.567383,761.013123 554.341614,760.262512 
z"/>
<path fill="#fff" opacity="1.000000" stroke="none" 
	d="
M544.082764,747.765442 
	C543.951050,747.339111 544.006531,746.710999 544.319031,746.036011 
	C544.474060,746.514038 544.372009,747.038818 544.082764,747.765442 
z"/>
</svg>