<svg version="1.1" id="Layer_1" xmlns="http://www.w3.org/2000/svg" xmlns:xlink="http://www.w3.org/1999/xlink" x="0px" y="0px"
	 width="48" height="48" viewBox="0 0 1024 1024" enable-background="new 0 0 1024 1024" xml:space="preserve">
<path fill="#fff" opacity="1.000000" stroke="none" 
	d="
M485.563751,443.984222 
	C485.409332,414.494446 485.036285,385.501038 485.162903,356.509766 
	C485.293793,326.529602 485.699280,296.551971 485.143555,266.571838 
	C485.060364,262.084442 485.149048,257.543274 486.358856,253.186981 
	C489.899750,240.437225 502.958984,232.065979 516.405273,233.783752 
	C530.170776,235.542297 541.239197,247.720261 541.265503,261.452728 
	C541.333862,297.116943 541.290955,332.781372 541.290344,368.445709 
	C541.289185,436.441284 541.279724,504.436859 541.291138,572.432434 
	C541.293091,583.812073 541.376465,581.623596 550.364319,581.592224 
	C561.892090,581.552063 573.411743,581.094604 583.898987,587.164856 
	C602.929321,598.180054 613.761719,614.295532 614.192200,636.612122 
	C614.443481,649.643677 614.217590,649.646606 627.097534,649.649841 
	C638.096802,649.652649 649.096802,649.586609 660.095215,649.687073 
	C668.911804,649.767639 675.322388,654.506653 678.198425,662.789307 
	C680.922424,670.633911 678.588379,678.397461 671.936279,683.798279 
	C668.814392,686.332825 665.277283,687.339417 661.274719,687.317444 
	C647.776001,687.243530 634.276672,687.287354 620.777527,687.289001 
	C614.147827,687.289795 614.066284,687.292847 614.087646,693.854492 
	C614.152649,713.851807 606.185486,729.717102 589.512573,740.839111 
	C581.036621,746.493164 571.530945,749.402832 561.215698,749.291809 
	C556.049988,749.236145 550.880859,749.376526 545.717712,749.249390 
	C542.508667,749.170410 541.287292,750.502869 541.249756,753.694824 
	C541.189209,758.843506 541.147827,763.981262 540.707581,769.147888 
	C539.616516,781.952942 525.997620,792.968872 513.240967,792.978394 
	C499.394318,792.988708 487.931305,782.631836 485.585083,768.745361 
	C484.714569,763.593140 484.682098,758.452942 485.088470,753.313354 
	C485.339569,750.137817 484.139618,749.340332 481.159821,749.251953 
	C472.024933,748.980957 462.804810,750.404480 453.761047,748.379578 
	C430.435303,743.156799 412.758942,720.884033 412.649902,696.946045 
	C412.601196,686.257690 414.197083,687.195190 402.660278,687.206665 
	C390.494476,687.218689 378.328613,687.344788 366.163025,687.312927 
	C354.925476,687.283508 345.974243,678.852905 346.191864,668.661438 
	C346.436584,657.202454 354.315216,649.739685 366.199341,649.653076 
	C380.027008,649.552246 393.855438,649.274048 407.681244,649.377686 
	C411.494934,649.406189 412.755493,648.047058 412.704834,644.470154 
	C412.629395,639.141418 412.285309,633.745178 412.945984,628.489624 
	C415.782318,605.927429 433.802765,586.547913 456.024506,582.179199 
	C463.234161,580.761780 470.651794,581.796814 477.972198,581.608215 
	C484.675751,581.435303 484.921356,581.320557 484.935303,574.452759 
	C485.007416,538.955322 485.021423,503.457794 485.117218,467.960449 
	C485.138367,460.133789 485.408875,452.307800 485.563751,443.984222 
M485.500000,646.908203 
	C504.979218,646.942627 524.458435,646.982544 543.937622,647.009094 
	C553.260986,647.021851 562.584534,647.033081 571.907715,646.989563 
	C573.856323,646.980469 575.891235,647.202209 576.596741,644.444519 
	C579.899536,631.534607 569.748840,618.353821 556.314026,618.333557 
	C527.178467,618.289612 498.042084,618.398621 468.907684,618.203369 
	C462.577026,618.160889 458.202789,620.986877 454.357330,625.473328 
	C450.224304,630.295288 450.064301,636.021667 450.081512,641.946777 
	C450.092102,645.596069 451.348267,646.985657 455.032288,646.929932 
	C464.852722,646.781433 474.677155,646.895691 485.500000,646.908203 
M461.681915,711.001709 
	C464.604675,712.415222 467.698975,712.693787 470.914093,712.687927 
	C498.578186,712.637451 526.242432,712.665283 553.906616,712.650696 
	C568.134644,712.643188 576.835632,703.664734 576.793640,689.470337 
	C576.782349,685.643555 575.733276,684.130981 571.694763,684.208191 
	C560.866882,684.415100 550.031738,684.229065 539.199524,684.233276 
	C511.368713,684.244141 483.537231,684.373169 455.707733,684.193237 
	C451.278381,684.164551 449.762054,685.762085 449.670013,689.862549 
	C449.464722,699.010254 453.201904,705.925354 461.681915,711.001709 
z"/>
<path fill="#fff" opacity="1.000000" stroke="none" 
	d="
M346.057678,350.651581 
	C346.627350,338.091675 352.932831,331.281250 364.784729,330.583252 
	C382.096771,329.563690 399.430054,329.835968 416.740326,330.712372 
	C426.258545,331.194275 434.003235,340.258972 433.852203,350.193909 
	C433.715179,359.209930 425.598846,367.856506 416.163513,368.010284 
	C398.669708,368.295441 381.160919,368.296997 363.670349,367.895111 
	C354.174133,367.676910 348.481659,361.681274 346.057678,350.651581 
z"/>
<path fill="#fff" opacity="1.000000" stroke="none" 
	d="
M610.118286,330.635590 
	C626.367554,329.577515 642.196411,330.031830 658.016724,330.018860 
	C665.681213,330.012573 672.463379,331.944794 676.736511,339.209717 
	C684.102173,351.732330 676.315857,367.409393 661.959473,367.760376 
	C644.984619,368.175415 627.979431,368.446625 611.005920,367.463715 
	C599.642029,366.805634 593.203247,360.872009 592.659302,350.999969 
	C592.068298,340.273285 598.597595,332.466461 610.118286,330.635590 
z"/>
<path fill="#fff" opacity="1.000000" stroke="none" 
	d="
M393.000061,492.656433 
	C400.663788,492.659821 407.828186,492.602631 414.991058,492.681396 
	C425.789246,492.800140 433.100067,499.939636 433.628265,510.763580 
	C434.105560,520.543152 427.223846,529.135925 416.961975,529.588562 
	C402.337006,530.233582 387.660583,529.705200 373.006134,529.693787 
	C369.850403,529.691284 366.693542,529.825317 363.539062,529.776489 
	C353.557434,529.622131 346.627991,522.086670 346.601379,511.425171 
	C346.573364,500.196075 353.118530,492.840210 363.512421,492.696381 
	C373.173309,492.562683 382.837372,492.660706 393.000061,492.656433 
z"/>
<path fill="#fff" opacity="1.000000" stroke="none" 
	d="
M679.616821,512.660522 
	C677.528259,524.299927 671.318237,529.475891 660.041504,529.450073 
	C643.732483,529.412720 627.423279,529.472534 611.114380,529.419067 
	C600.400330,529.383911 592.625427,521.466614 592.688354,510.803864 
	C592.750183,500.343750 600.421082,492.731110 611.148010,492.683990 
	C627.123962,492.613831 643.100464,492.646362 659.076721,492.665527 
	C671.146545,492.680023 678.858765,500.044617 679.616821,512.660522 
z"/>
</svg>