<svg xmlns="http://www.w3.org/2000/svg" height="48" viewBox="0 -960 960 960" width="48"><path fill="#fff" d="M480.118-391Q426-391 390-429.917 354-468.833 354-523v-246q0-50.833 36.324-87.917Q426.647-894 479.824-894 533-894 570-856.917q37 37.084 37 87.917v246q0 54.167-36.382 93.083Q534.235-391 480.118-391ZM441-119v-99q-105.789-9.119-181.867-83.212Q183.055-375.305 169-483q-2-15.854 8.593-27.927Q188.185-523 206.093-523 223-523 234.5-511t16.5 29q13 85 79.211 137 66.21 52 149.442 52Q566-293 631-346q65-53 80-136 1.963-16.6 14.157-28.8 12.194-12.2 30.018-12.2Q772-523 782-509.927T792-482q-16 104-90.545 178.903Q626.91-228.193 520-218v99q0 17.35-11.956 29.175T480.544-78Q464-78 452.5-89.825T441-119Z"/></svg>