<svg xmlns="http://www.w3.org/2000/svg" height="48" viewBox="0 -960 960 960" width="48">
  <path fill="#fff" d="M480.294-391Q426-391 390-429.792 354-468.583 354-523v-246q0-51.25 36.441-88.125t89.5-36.875Q533-894 570-857.125T607-769v246q0 54.417-36.206 93.208Q534.588-391 480.294-391ZM480-643ZM441-78v-140q-119-12-197-98.51-78-86.509-78-206.49h80q0 96 68.555 163 68.554 67 165.82 67 97.265 0 165.445-67.143Q714-427.285 714-523h80q0 119.989-78 206.494Q638-230 520-218.102V-78h-79Zm39.105-404q15.495 0 25.195-12.062Q515-506.125 515-523v-245.868q0-13.732-10.488-23.932Q494.025-803 480-803t-24.513 10.2Q445-782.6 445-768.868V-523q0 16.875 9.805 28.938Q464.611-482 480.105-482Z"/>
</svg>