<svg version="1.1" id="Layer_1" xmlns="http://www.w3.org/2000/svg" xmlns:xlink="http://www.w3.org/1999/xlink" x="0px" y="0px"
	 width="48px" height="48px" viewBox="0 0 1024 1024" enable-background="new 0 0 1024 1024" xml:space="preserve">
<path fill="#fff" opacity="1.000000" stroke="none" 
	d="
M606.002808,823.524475 
	C600.351257,835.990051 588.623657,839.901245 578.556702,832.902771 
	C572.822937,828.916748 571.040344,822.906128 570.939514,816.325012 
	C570.758362,804.493835 570.625427,792.658142 570.765991,780.827881 
	C570.813354,776.841675 569.806824,775.102112 565.478882,775.255676 
	C557.489136,775.539124 549.474670,775.533875 541.484985,775.245605 
	C537.209839,775.091370 536.143677,776.727173 536.150085,780.759277 
	C536.203064,814.258484 536.077759,847.757935 535.992615,881.257324 
	C535.976196,887.720032 534.783813,893.889038 530.657227,899.087036 
	C525.059082,906.138672 516.108765,909.043579 507.860657,906.674927 
	C498.399719,903.957947 492.022400,896.218872 490.901886,885.947937 
	C490.667816,883.802429 490.717163,881.620911 490.715637,879.455933 
	C490.692169,846.789673 490.585876,814.122925 490.771545,781.457825 
	C490.799713,776.501587 489.112274,775.129211 484.422577,775.313171 
	C476.601654,775.620056 468.755768,775.524597 460.927856,775.317810 
	C457.202515,775.219482 455.950928,776.639160 455.976074,780.275452 
	C456.062469,792.773926 456.129639,805.278992 455.820984,817.772095 
	C455.483673,831.424866 444.203979,839.565918 432.034546,835.278381 
	C425.087158,832.830811 419.816833,824.548340 419.779999,815.724670 
	C419.731323,804.058899 419.669769,792.389832 419.907074,780.728088 
	C419.991974,776.556885 418.533722,775.191101 414.422394,775.311829 
	C406.263184,775.551331 398.087952,775.500549 389.926453,775.291687 
	C386.187164,775.196045 384.990234,776.653931 384.967407,780.263367 
	C384.893677,791.922241 384.500122,803.578735 384.361877,815.237732 
	C384.219299,827.264160 374.743225,837.431946 363.392975,837.554993 
	C350.923309,837.690247 341.017914,828.336609 340.746674,815.818726 
	C340.519257,805.323425 340.671814,794.819946 340.642273,784.320129 
	C340.617188,775.404297 340.608429,775.405884 331.972351,775.400208 
	C323.972443,775.394958 315.972565,775.383179 307.972656,775.379150 
	C301.462006,775.375854 301.414093,775.378845 301.381226,782.117981 
	C301.327576,793.117615 301.370605,804.117737 301.322845,815.117371 
	C301.268890,827.547180 291.672394,837.370728 279.719757,837.294739 
	C268.111420,837.220947 258.750549,827.362427 258.685913,815.038269 
	C258.625641,803.538696 258.558075,792.037292 258.708984,780.539490 
	C258.759491,776.691711 257.462769,775.169495 253.496658,775.273987 
	C245.335892,775.488953 237.161758,775.173340 228.999390,775.355835 
	C199.786377,776.009094 177.029465,752.644531 171.688797,726.166992 
	C170.762878,721.576538 170.687790,716.917786 170.690063,712.240662 
	C170.745895,597.742249 170.715515,483.243805 170.840836,368.745514 
	C170.865875,345.870605 181.207367,328.530945 200.679962,316.710083 
	C209.723953,311.219940 219.846268,309.211304 230.294174,308.920319 
	C237.955139,308.706940 245.628220,308.746460 253.291870,308.889374 
	C256.994049,308.958405 258.748322,307.860840 258.710571,303.787781 
	C258.534637,284.789978 258.729828,265.788177 258.488007,246.791718 
	C258.329529,234.342239 267.020844,224.751236 279.150787,224.634659 
	C291.785645,224.513245 301.602966,234.149185 301.535675,246.481400 
	C301.432892,265.312805 301.506836,284.145813 301.276947,302.975342 
	C301.224823,307.242432 302.436035,308.950378 306.929779,308.808167 
	C316.087463,308.518280 325.272888,308.412598 334.421692,308.810181 
	C339.387085,309.026001 341.050140,307.199158 340.667084,302.570923 
	C340.502747,300.585022 340.653839,298.573364 340.653992,296.573425 
	C340.656281,267.407104 340.645233,238.240768 340.663910,209.074463 
	C340.672760,195.212524 349.113617,185.396347 361.327942,184.964874 
	C374.510162,184.499222 384.597382,193.856934 384.878632,208.106750 
	C385.269806,227.928482 384.827423,247.766968 384.717438,267.598145 
	C384.651855,279.426788 384.552032,291.255310 384.441711,303.083618 
	C384.403442,307.185852 386.064087,309.008698 390.466339,308.849152 
	C398.622406,308.553589 406.799438,308.621460 414.961609,308.807678 
	C418.717285,308.893372 419.851196,307.428589 419.807831,303.801666 
	C419.658386,291.303741 419.656586,278.801331 419.813385,266.303314 
	C419.955963,254.942291 425.965332,247.729218 435.773224,246.699600 
	C447.215088,245.498459 455.569550,252.902512 455.855469,264.992462 
	C456.143066,277.152771 455.981110,289.323669 456.017426,301.489929 
	C456.020905,302.656464 456.063080,303.823639 456.036102,304.989380 
	C455.972412,307.740814 457.351593,308.853424 460.036316,308.830872 
	C469.035675,308.755341 478.036072,308.695496 487.035187,308.758820 
	C490.420746,308.782654 490.698059,306.774628 490.684235,304.175476 
	C490.639069,295.675873 490.691956,287.175812 490.691772,278.675903 
	C490.690765,233.009781 490.660309,187.343658 490.697418,141.677567 
	C490.707489,129.296356 497.888306,120.669380 509.786377,118.428101 
	C521.390442,116.242195 533.302368,124.513100 535.200439,136.258331 
	C535.781616,139.854401 536.043213,143.540344 536.047974,147.185638 
	C536.115295,198.684753 536.112854,250.183929 536.127808,301.683105 
	C536.129883,308.777100 536.131287,308.783234 543.309753,308.789001 
	C550.809631,308.795074 558.313782,308.637177 565.807739,308.848053 
	C569.718445,308.958130 571.090820,307.523315 571.034973,303.624298 
	C570.856079,291.126892 570.883911,278.625305 570.951172,266.125946 
	C571.014343,254.409866 577.820618,246.652435 587.848389,246.654648 
	C599.194641,246.657150 607.078064,254.532547 607.199341,266.312836 
	C607.328003,278.811157 607.299927,291.313324 607.131226,303.811035 
	C607.081970,307.462067 608.283508,308.874969 612.016663,308.777008 
	C619.677979,308.575958 627.348206,308.727234 635.014771,308.711670 
	C641.674316,308.698151 641.694885,308.684906 641.698608,302.195526 
	C641.716614,270.862579 641.692444,239.529587 641.749268,208.196747 
	C641.769348,197.142822 648.542969,187.964981 658.086487,185.753769 
	C672.732239,182.360352 686.244385,193.239182 686.287231,208.674393 
	C686.373352,239.673813 686.319336,270.673584 686.325500,301.673218 
	C686.326904,308.762726 686.331299,308.776917 693.456848,308.775055 
	C700.456726,308.773224 707.457458,308.800568 714.456299,308.704163 
	C725.699219,308.549377 724.687683,310.203033 724.741394,298.633362 
	C724.821106,281.467316 724.756409,264.300446 724.866821,247.134659 
	C724.935547,236.452332 730.213562,228.572159 738.940125,225.707062 
	C753.800659,220.828079 768.291382,231.170975 768.354370,246.832397 
	C768.429382,265.498474 768.478699,284.166748 768.248413,302.830475 
	C768.191650,307.426147 769.675842,308.855927 774.235291,308.922058 
	C786.028870,309.093109 797.873352,307.946625 809.593323,310.606689 
	C836.229492,316.652283 855.347778,340.139465 855.379395,367.498383 
	C855.451111,429.497528 854.973206,491.501038 855.563599,553.494751 
	C856.082520,607.987671 854.753723,662.469055 855.435059,716.958984 
	C855.746338,741.855469 839.243164,764.503174 815.721069,772.720459 
	C810.814270,774.434509 805.718079,775.251526 800.535828,775.312439 
	C792.203613,775.410400 783.847351,775.743164 775.544495,775.249146 
	C770.062988,774.922913 768.467590,777.239136 768.470032,782.066895 
	C768.475830,793.399353 768.512512,804.734375 768.296265,816.063721 
	C767.999390,831.618713 752.102783,841.781433 738.113098,835.168396 
	C729.057007,830.887512 725.315491,822.775940 725.019775,813.184265 
	C724.686157,802.360535 724.743347,791.517517 724.939026,780.688416 
	C725.014893,776.490234 723.480530,775.205566 719.405273,775.304382 
	C709.910950,775.534668 700.405762,775.473145 690.908142,775.325989 
	C687.472290,775.272766 686.190979,776.480713 686.232178,779.972656 
	C686.365723,791.303894 686.287720,802.638245 686.224792,813.971008 
	C686.147522,827.881653 677.626099,837.218140 664.965210,837.353638 
	C651.758423,837.494995 642.166321,828.119690 641.874512,814.432617 
	C641.636597,803.270569 641.559265,792.096619 641.806213,780.936707 
	C641.905396,776.455811 640.355042,775.158325 636.042419,775.307068 
	C628.052490,775.582642 620.041931,775.502625 612.047302,775.290771 
	C608.302429,775.191528 607.081726,776.649658 607.117615,780.266968 
	C607.231689,791.765320 607.091064,803.265930 607.113953,814.765503 
	C607.119629,817.609863 606.931641,820.403320 606.002808,823.524475 
M277.500000,741.745117 
	C449.789886,741.740479 622.079773,741.715942 794.369568,741.806885 
	C801.033508,741.810364 806.815063,740.235779 811.969360,736.077515 
	C820.245361,729.401001 822.617798,720.226929 822.621521,710.246216 
	C822.663513,597.940918 822.573914,485.635529 822.689697,373.330322 
	C822.708008,355.592743 810.291748,342.914734 792.657837,342.953278 
	C606.038574,343.361115 419.418030,343.324341 232.798431,343.025177 
	C217.671967,343.000946 203.759079,353.429535 203.640793,372.770721 
	C203.473785,400.078278 204.007156,427.382019 203.555450,454.697144 
	C203.131348,480.342957 203.577988,506.007751 203.921890,531.660461 
	C204.270248,557.645996 203.369995,583.618347 203.719727,609.612000 
	C204.183578,644.088745 203.586121,678.580811 203.344223,713.065491 
	C203.235794,728.522278 216.635147,742.839783 232.022324,741.927551 
	C246.799896,741.051453 261.670349,741.742004 277.500000,741.745117 
z"/>
<path fill="#fff" opacity="1.000000" stroke="none" 
	d="
M576.413574,618.466614 
	C559.754639,631.710205 540.433350,638.197021 520.188110,639.267883 
	C469.481750,641.949890 425.066803,610.688904 415.359650,558.482117 
	C407.325226,515.271606 421.404633,477.303009 461.389008,452.342255 
	C491.894135,433.299072 524.983215,432.923431 557.498901,447.981323 
	C590.722717,463.367157 609.243774,490.771179 613.933655,526.344482 
	C618.812378,563.350281 605.402771,594.210449 576.413574,618.466614 
M474.905823,581.409119 
	C504.213074,551.708191 533.520325,522.007324 563.171082,491.958313 
	C545.200623,472.649384 522.140259,467.315277 496.724274,473.006165 
	C472.045532,478.531982 448.967255,498.944458 446.708496,533.574890 
	C445.298035,555.199646 451.220795,574.053833 465.933960,588.499329 
	C469.130066,586.014526 471.768250,583.963440 474.905823,581.409119 
z"/>
<path fill="#fff" opacity="1.000000" stroke="none" 
	d="
M385.072083,608.260254 
	C379.933075,619.411682 373.229095,623.504639 364.109070,621.417908 
	C355.427063,619.431396 349.766663,612.523010 349.700165,603.506531 
	C349.606781,590.843445 349.478333,578.174866 349.764252,565.517700 
	C349.870544,560.812256 348.610840,559.166626 343.673676,559.219482 
	C321.681305,559.454834 299.684845,559.337341 277.689972,559.283386 
	C269.371002,559.263000 262.930817,554.592285 260.677856,547.169128 
	C257.448761,536.529846 265.258087,525.753906 276.457367,525.704895 
	C298.785156,525.607117 321.114716,525.563049 343.441040,525.769104 
	C348.145630,525.812439 349.886292,524.543823 349.768219,519.614319 
	C349.465088,506.957886 349.629333,494.289062 349.687347,481.625549 
	C349.739258,470.286224 356.737183,462.737549 367.153534,462.641815 
	C376.958679,462.551697 385.253754,470.813202 385.271210,481.376617 
	C385.341003,523.531677 385.219025,565.687134 385.072083,608.260254 
z"/>
<path fill="#fff" opacity="1.000000" stroke="none" 
	d="
M659.840820,462.680664 
	C670.888672,464.236633 677.239136,471.334106 677.314697,481.982635 
	C677.404480,494.640198 677.497192,507.301697 677.260437,519.955383 
	C677.179382,524.286804 678.479919,525.762573 682.917114,525.725708 
	C704.734253,525.544250 726.553772,525.647034 748.372498,525.666260 
	C758.651428,525.675293 766.248291,532.728577 766.340454,542.304749 
	C766.436157,552.242065 759.425781,559.209045 748.797974,559.270935 
	C726.979980,559.397949 705.159119,559.466187 683.343323,559.219299 
	C678.404114,559.163391 677.127075,560.777039 677.234619,565.490845 
	C677.523376,578.142578 677.376160,590.805115 677.330811,603.463135 
	C677.293091,613.988464 669.338074,622.062012 659.144043,622.037598 
	C649.746277,622.015076 641.701111,613.752991 641.686035,603.784851 
	C641.624390,562.979004 641.610840,522.172974 641.670105,481.367126 
	C641.686218,470.258331 648.643677,463.088196 659.840820,462.680664 
z"/>
<path fill="#fff" opacity="1.000000" stroke="none" 
	d="
M785.273438,414.749939 
	C782.916443,431.419617 769.031006,443.208282 753.847534,441.866547 
	C737.765747,440.445435 725.654602,427.286377 725.943298,411.548157 
	C726.258423,394.373535 738.564148,381.693970 754.938843,381.671600 
	C772.255188,381.647980 784.860413,393.955872 785.283997,411.306824 
	C785.308350,412.303680 785.289551,413.301605 785.273438,414.749939 
z"/>
<path fill="#fff" opacity="1.000000" stroke="none" 
	d="
M288.600708,435.687714 
	C276.618042,443.714355 262.917603,443.677826 253.007965,435.809143 
	C242.066895,427.121399 238.164520,412.444244 243.322098,399.379791 
	C248.150681,387.148712 261.569580,379.699921 274.864227,381.870819 
	C288.720917,384.133514 299.609772,396.226318 300.257996,410.049988 
	C300.745239,420.441010 296.697510,428.794159 288.600708,435.687714 
z"/>
<path fill="#fff" opacity="1.000000" stroke="none" 
	d="
M730.624756,691.208618 
	C719.321960,670.053589 732.589417,646.079773 755.382751,645.814148 
	C768.543091,645.660828 781.239990,655.641602 784.184509,668.454529 
	C787.604065,683.334473 781.511841,696.456299 768.175659,702.935303 
	C755.952576,708.873596 741.593750,705.392883 732.850159,694.357788 
	C732.128662,693.447205 731.490479,692.470764 730.624756,691.208618 
z"/>
<path fill="#fff" opacity="1.000000" stroke="none" 
	d="
M256.316650,701.879639 
	C244.156754,694.136353 239.007263,682.341248 241.858887,669.305542 
	C244.595932,656.793640 254.065964,648.138000 267.422089,645.940857 
	C279.590607,643.939026 293.920349,653.116394 298.264374,665.693542 
	C304.867157,684.810303 292.600250,703.967468 272.405670,705.719299 
	C266.900940,706.196716 261.512115,704.935669 256.316650,701.879639 
z"/>
<path fill="#fff" opacity="1.000000" stroke="none" 
	d="
M500.294495,666.732361 
	C504.577698,659.795227 510.210571,657.184509 516.765747,658.818481 
	C523.555054,660.510864 527.724487,665.280701 528.065796,672.901123 
	C528.430725,681.046936 528.402771,689.231934 528.074280,697.380798 
	C527.761719,705.135437 521.613281,710.897034 514.133850,711.139893 
	C506.929871,711.373840 499.560791,705.762329 499.161285,698.402832 
	C498.595795,687.985413 497.581055,677.454407 500.294495,666.732361 
z"/>
<path fill="#fff" opacity="1.000000" stroke="none" 
	d="
M498.737335,408.649780 
	C498.749847,400.881317 498.607758,393.567078 498.845123,386.265198 
	C499.044220,380.138092 501.838562,375.553650 507.741272,373.061066 
	C513.420166,370.663086 518.487122,371.846558 523.128235,375.432800 
	C527.741516,378.997498 527.843079,384.399963 528.106567,389.488159 
	C528.415344,395.452118 528.264709,401.447113 528.135986,407.424835 
	C527.933289,416.840729 522.517761,422.514648 513.476562,422.991852 
	C505.992920,423.386841 500.073608,417.807953 498.737335,408.649780 
z"/>
<path fill="#fff" opacity="1.000000" stroke="none" 
	d="
M576.100647,676.232666 
	C570.632019,671.378601 567.381775,665.336487 564.025085,659.453064 
	C561.263672,654.613220 563.270325,648.099792 568.004700,644.414673 
	C572.560730,640.868408 579.312317,640.780579 583.626221,644.799377 
	C588.916931,649.727966 592.748047,655.846375 594.964355,662.704041 
	C596.536987,667.570190 594.608398,671.955017 590.744629,675.162354 
	C586.366455,678.796631 581.498169,679.368591 576.100647,676.232666 
z"/>
<path fill="#fff" opacity="1.000000" stroke="none" 
	d="
M464.235046,656.623169 
	C461.757629,663.303894 457.970001,668.793274 453.811005,673.951660 
	C449.760681,678.975281 442.725830,679.762878 437.646362,676.344177 
	C432.581238,672.935120 430.477600,665.513367 433.404053,660.044189 
	C435.513672,656.101501 438.017303,652.344299 440.605560,648.688721 
	C444.954010,642.547180 449.466675,640.840454 455.509277,642.696777 
	C461.183105,644.439819 464.136932,648.989929 464.235046,656.623169 
z"/>
<path fill="#fff" opacity="1.000000" stroke="none" 
	d="
M583.778137,434.977203 
	C576.717407,439.049377 571.022888,438.728363 566.644592,434.262604 
	C561.806152,429.327454 561.411316,423.634064 565.642517,416.943695 
	C567.687927,413.709564 569.871704,410.542938 572.228516,407.530121 
	C576.558350,401.995178 583.767517,401.088409 589.615356,405.155701 
	C595.402771,409.181000 596.985718,416.295319 593.189819,422.277893 
	C590.431763,426.624695 587.959961,431.213104 583.778137,434.977203 
z"/>
<path fill="#fff" opacity="1.000000" stroke="none" 
	d="
M439.121460,428.835236 
	C437.142456,425.926056 435.166779,423.420959 433.666107,420.657898 
	C430.563873,414.946014 432.462677,408.374969 438.047394,404.616119 
	C443.098450,401.216492 450.452301,401.991486 454.325806,406.794250 
	C457.448914,410.666626 460.231018,414.856354 462.792877,419.128113 
	C465.895752,424.301910 464.261322,431.286957 459.512939,434.752533 
	C454.290009,438.564453 447.447418,438.176117 443.161682,433.730927 
	C441.780396,432.298279 440.607849,430.664368 439.121460,428.835236 
z"/>
<path fill="#fff" opacity="1.000000" stroke="none" 
	d="
M613.694092,442.505920 
	C624.014343,441.876678 630.941528,447.327759 631.453186,456.092773 
	C631.924866,464.173584 626.047363,470.792084 617.724976,471.551758 
	C610.307190,472.228882 603.936707,467.446167 602.466675,460.096405 
	C600.809937,451.812500 604.976440,445.080261 613.694092,442.505920 
z"/>
<path fill="#fff" opacity="1.000000" stroke="none" 
	d="
M419.631287,445.210571 
	C425.244385,450.765228 426.789307,456.911652 424.251617,462.598541 
	C421.449707,468.877563 416.803040,471.639648 409.474762,471.382080 
	C401.278564,471.093994 395.174561,463.766876 396.125885,455.358490 
	C397.141876,446.378540 404.415527,440.779022 412.864746,442.436310 
	C415.185516,442.891510 417.336273,443.721771 419.631287,445.210571 
z"/>
<path fill="#fff" opacity="1.000000" stroke="none" 
	d="
M398.376465,628.348877 
	C394.965515,622.309326 395.517822,616.821289 399.412537,611.699890 
	C402.581085,607.533386 407.039246,605.801270 412.137146,606.261963 
	C419.382202,606.916687 424.324524,611.938416 425.271149,619.134338 
	C426.101196,625.444214 422.439911,631.410217 416.058075,634.146667 
	C409.816681,636.822815 403.248993,634.765442 398.376465,628.348877 
z"/>
<path fill="#fff" opacity="1.000000" stroke="none" 
	d="
M613.750305,606.243408 
	C621.883057,605.303772 627.560791,608.573608 630.424805,615.503906 
	C632.808167,621.271240 630.939819,627.924438 625.789673,632.009888 
	C619.038818,637.364929 610.123779,636.073425 605.292419,629.040527 
	C600.355896,621.854248 602.105652,612.473755 609.259399,608.139709 
	C610.521362,607.375183 611.985046,606.943787 613.750305,606.243408 
z"/>
</svg>