<svg xmlns="http://www.w3.org/2000/svg" height="48" viewBox="0 -960 960 960" width="48">
<path fill="#fff" d="M371-326h218q18.8 0 32.4-13.312Q635-352.625 635-371v-218q0-18.8-13.6-32.4Q607.8-635 589-635H371q-18.375 0-31.688 13.6Q326-607.8 326-589v218q0 18.375 13.312 31.688Q352.625-326 371-326ZM479.945-59q-87.053 0-164.146-32.604-77.094-32.603-134.343-89.852-57.249-57.249-89.852-134.41Q59-393.028 59-480.362q0-87.228 32.662-163.934 32.663-76.706 90.203-134.253 57.54-57.547 134.252-90.499Q392.829-902 479.836-902q87.369 0 164.544 32.858 77.175 32.858 134.401 90.257 57.225 57.399 90.222 134.514Q902-567.257 902-479.724q0 87.468-32.952 163.882t-90.499 133.781q-57.547 57.367-134.421 90.214Q567.255-59 479.945-59Zm.326-91q136.242 0 232.985-96.387Q810-342.773 810-480.271q0-136.242-96.327-232.985Q617.346-810 479.729-810q-136.242 0-232.985 96.327Q150-617.346 150-479.729q0 136.242 96.387 232.985Q342.773-150 480.271-150ZM480-480Z"/>
</svg>