<svg version="1.1" id="Layer_1" xmlns="http://www.w3.org/2000/svg" xmlns:xlink="http://www.w3.org/1999/xlink" x="0px" y="0px"
	 width="48px" height="48px" viewBox="0 0 1024 1024" enable-background="new 0 0 1024 1024" xml:space="preserve">
<path fill="#fff" opacity="1.000000" stroke="none" 
	d="
M222.685181,631.168152 
	C207.177719,589.660095 200.724564,546.976318 202.986969,503.300751 
	C206.594269,433.662537 231.235199,372.192291 276.834076,319.072388 
	C306.395172,284.635529 341.459015,257.707611 382.332825,238.234421 
	C408.971283,225.543259 437.097076,217.483917 466.125610,212.743561 
	C512.283813,205.205902 557.526367,209.436615 602.231445,223.129303 
	C637.401428,233.901520 669.426880,250.338303 698.656311,272.450684 
	C701.321960,274.467285 702.993408,274.445740 705.310547,271.927643 
	C713.093506,263.469635 721.027588,255.146530 729.066406,246.930893 
	C731.447327,244.497635 731.622559,242.775940 729.079895,240.376511 
	C725.451050,236.952148 721.870544,233.416656 718.714355,229.564102 
	C712.481140,221.955490 712.447266,214.290802 718.883789,206.998978 
	C724.387756,200.763580 730.216797,194.768127 736.327148,189.127029 
	C743.629944,182.385056 755.999817,183.540222 764.454590,191.647247 
	C777.201294,203.869644 789.808594,216.240417 802.325867,228.698120 
	C811.063599,237.394287 819.533691,246.358917 828.159729,255.168015 
	C831.789551,258.874908 833.941772,263.158264 834.401123,268.410675 
	C834.823547,273.241302 833.488770,277.243530 830.071045,280.646179 
	C824.166870,286.524200 818.442017,292.589264 812.394653,298.314728 
	C804.351685,305.929504 795.548584,305.782990 787.672729,298.071716 
	C783.998840,294.474640 780.558105,290.639404 777.289490,287.204132 
	C775.196350,286.855133 774.314392,288.060242 773.403931,288.918030 
	C764.671936,297.145203 756.181030,305.610260 748.115479,314.502686 
	C746.309143,316.494232 746.820129,317.772278 748.337585,319.573059 
	C766.487976,341.111847 780.791443,365.103729 793.217712,390.282104 
	C805.255249,414.672729 812.408813,440.574554 817.250732,467.226044 
	C821.412598,490.134033 822.317627,513.271667 821.155823,536.392273 
	C819.002319,579.251648 809.151733,620.337097 789.841370,658.853027 
	C758.172119,722.019531 710.470459,769.022766 646.362793,798.800842 
	C610.116943,815.637146 571.910339,825.157593 531.796448,827.586609 
	C491.376465,830.034180 451.920624,825.751953 413.506104,813.289246 
	C366.576721,798.064026 325.522766,772.943970 291.077209,737.470215 
	C261.253601,706.756470 237.802139,671.847229 222.685181,631.168152 
M750.192139,404.230957 
	C727.569824,357.566711 693.974121,320.629974 650.091370,293.333466 
	C615.361572,271.730377 577.269470,259.291046 536.514832,255.200134 
	C530.154602,254.561707 530.136719,254.540207 530.095337,260.852142 
	C530.051697,267.516785 530.325989,274.196533 529.967529,280.843048 
	C529.433899,290.736847 521.249573,298.309174 511.923431,298.009949 
	C502.378296,297.703674 495.814392,290.468903 495.700623,280.042480 
	C495.635162,274.044434 495.695709,268.045135 495.660767,262.046600 
	C495.622528,255.486160 494.889374,254.790573 488.427582,255.392975 
	C453.876282,258.613983 421.072845,267.865265 390.286133,283.992737 
	C385.456940,286.522491 380.683289,289.188019 376.525330,292.912903 
	C377.167603,295.198120 378.844757,296.379852 380.218994,297.767914 
	C386.545746,304.158173 393.328583,310.115051 398.952545,317.174347 
	C405.249664,325.078522 404.324249,335.052063 396.780853,341.751404 
	C389.668030,348.068359 380.788635,347.770813 373.619995,340.626190 
	C367.604767,334.631104 361.942261,328.283722 356.033142,322.179871 
	C352.954468,318.999725 350.349731,315.298004 346.376495,312.731781 
	C335.703857,321.608521 326.070740,331.247620 317.008087,341.466003 
	C278.156281,385.272339 254.287262,435.657013 249.861526,494.567657 
	C249.438080,500.204010 250.099731,501.026459 255.738678,501.060486 
	C266.069458,501.122864 276.400879,501.076050 286.731598,501.139893 
	C292.404144,501.174927 297.746979,502.274384 301.465820,507.084381 
	C305.841888,512.744385 307.452240,518.968018 304.353638,525.762695 
	C301.203796,532.669678 295.628693,536.096252 288.099152,536.160950 
	C276.935699,536.256775 265.768585,536.337219 254.607971,536.142151 
	C250.346497,536.067688 248.848129,537.774658 249.346481,541.790039 
	C250.328445,549.701965 251.013962,557.660156 252.279343,565.525696 
	C260.320923,615.511414 280.979248,659.750916 315.091858,697.058289 
	C362.114685,748.484985 421.085327,776.348938 490.397736,782.584656 
	C494.138702,782.921204 495.897217,782.069336 495.769318,777.823730 
	C495.498444,768.833984 495.505951,759.825562 495.736237,750.833435 
	C496.049316,738.606873 507.018372,730.864563 518.227295,734.720093 
	C525.747131,737.306702 529.956177,744.071472 530.123901,754.230591 
	C530.255859,762.226807 530.284302,770.228638 530.134949,778.223755 
	C530.068604,781.777405 531.512817,783.092407 534.909973,782.653931 
	C540.021851,781.994202 545.145813,781.424683 550.251953,780.724304 
	C583.596130,776.151062 615.108276,766.099365 644.310730,749.175415 
	C645.423767,748.530334 646.827026,748.119812 647.021606,746.057068 
	C640.083557,738.600952 632.921387,730.963928 625.833374,723.258789 
	C622.766479,719.924866 620.011902,716.366333 619.648621,711.573364 
	C619.075256,704.008118 622.919739,697.261108 629.639465,694.040771 
	C636.430542,690.786194 643.112549,691.738037 648.888245,697.443481 
	C657.656433,706.104980 666.236938,714.962769 674.697388,723.925720 
	C677.010559,726.376282 678.508240,726.743530 681.189697,724.411011 
	C694.035156,713.237244 706.388428,701.556213 717.088623,688.303650 
	C751.448914,645.747070 770.200195,596.859680 775.571838,542.632507 
	C776.110107,537.198181 775.310547,536.317017 769.629333,536.296570 
	C758.132019,536.255249 746.632446,536.373718 735.137878,536.184021 
	C727.120361,536.051758 719.935181,529.936951 718.679749,522.639282 
	C717.100464,513.458923 721.066284,505.480774 728.819885,502.510498 
	C732.445129,501.121674 736.308411,501.019165 740.138611,501.009674 
	C750.136108,500.984894 760.135010,500.935730 770.130920,501.071472 
	C774.631714,501.132599 776.133179,498.935303 775.564758,494.834106 
	C775.017273,490.884735 774.222656,486.966003 773.777222,483.006744 
	C770.691101,455.578156 762.177856,429.775482 750.192139,404.230957 
z"/>
<path fill="#fff" opacity="1.000000" stroke="none" 
	d="
M533.415283,656.260925 
	C517.068604,687.052917 491.950531,705.790161 457.948395,710.750122 
	C417.276672,716.682800 377.798889,698.470398 359.391937,654.314514 
	C338.827179,604.982361 370.132568,543.014771 427.969818,531.284973 
	C453.440918,526.119263 477.260712,531.387329 498.951233,545.854126 
	C500.195435,546.683960 501.470490,547.474609 502.779480,548.195862 
	C503.172821,548.412598 503.729828,548.332214 504.228943,548.389954 
	C506.474976,546.553406 505.662994,544.044983 505.664948,541.845947 
	C505.721313,478.363556 505.957275,414.879730 505.588104,351.399506 
	C505.481720,333.110504 516.374207,320.979889 536.256653,324.381134 
	C580.489380,331.947876 617.748291,351.606812 646.746582,386.039490 
	C667.277100,410.417511 677.329651,438.881348 677.037720,470.700470 
	C676.696777,507.863831 662.422913,539.580444 637.832703,566.977722 
	C635.821045,569.219055 633.563843,571.187988 630.698853,572.330078 
	C627.588867,573.569824 624.522278,574.152039 621.969238,571.283691 
	C619.475403,568.481934 619.100403,565.249084 620.970337,562.032104 
	C624.400146,556.131409 628.135864,550.409668 630.689209,544.031616 
	C645.380310,507.333557 643.924194,472.272369 618.882446,440.322296 
	C602.113831,418.927612 579.456909,406.396484 553.099426,400.462677 
	C547.568909,399.217590 546.327271,400.562744 546.325195,406.943085 
	C546.306519,463.760742 546.332947,520.578430 546.296509,577.396057 
	C546.285950,593.867798 546.925720,610.375366 543.502625,626.670349 
	C541.367615,636.833862 537.752258,646.464050 533.415283,656.260925 
z"/>
</svg>