<svg version="1.1" id="Layer_1" xmlns="http://www.w3.org/2000/svg" xmlns:xlink="http://www.w3.org/1999/xlink" x="0px" y="0px"
	 width="48px" height="48px" viewBox="0 0 1024 1024" enable-background="new 0 0 1024 1024" xml:space="preserve">
<path fill="#fff" opacity="1.000000" stroke="none" 
	d="
M290.994019,788.994995 
	C269.845917,808.479309 238.473267,800.347290 229.825836,772.997375 
	C221.597031,746.971497 214.341980,720.639526 206.439148,694.508545 
	C192.558716,648.612488 178.480728,602.776184 164.587692,556.883972 
	C163.434784,553.075623 161.380707,551.407776 157.441147,551.437622 
	C148.613022,551.504639 139.782516,551.433105 130.954590,551.306458 
	C118.923500,551.133911 108.959129,542.206116 108.654938,531.442505 
	C108.269073,517.788452 116.222130,508.662323 129.703659,507.976440 
	C138.013794,507.553650 146.363586,507.912109 154.695572,507.916229 
	C162.303589,507.919983 162.449738,507.688660 164.450302,500.308075 
	C173.634521,466.424988 182.825851,432.543640 192.126770,398.692474 
	C203.366837,357.783752 214.729858,316.908813 226.013275,276.011963 
	C227.693527,269.921906 228.906113,263.684570 230.894653,257.701355 
	C236.134949,241.934021 249.003555,232.673843 265.075165,232.692673 
	C280.501617,232.710754 294.009979,242.155106 298.724304,257.735016 
	C307.588104,287.028107 315.798584,316.519409 324.218048,345.946259 
	C333.329132,377.790192 342.370605,409.654114 351.438324,441.510468 
	C354.763062,453.190765 358.037964,464.885437 361.422485,476.548370 
	C362.208038,479.255371 363.164948,481.945679 364.361938,484.493835 
	C367.543915,491.267639 372.888123,495.390381 380.464539,495.038879 
	C388.226746,494.678802 393.402588,490.069336 395.920532,482.798950 
	C397.605530,477.933716 398.902374,472.928619 400.250092,467.952820 
	C408.165375,438.729614 415.980652,409.479218 423.950562,380.270966 
	C436.343201,334.854492 448.715118,289.433533 460.494965,243.852386 
	C465.782166,223.394028 471.202789,202.966003 476.914337,182.622879 
	C480.931488,168.314850 489.653595,158.022888 504.690277,154.778122 
	C524.447876,150.514633 542.945618,162.913696 548.556152,184.032364 
	C559.194580,224.076721 569.463989,264.219421 580.173462,304.244568 
	C590.578979,343.133636 601.344238,381.926453 611.951233,420.761627 
	C617.386230,440.660614 622.753479,460.578430 628.285767,480.450317 
	C630.733215,489.241791 636.952454,494.537598 644.694702,494.920990 
	C652.917542,495.328156 659.231384,491.411713 662.178467,482.119263 
	C667.402466,465.647339 671.807800,448.914764 676.503845,432.276642 
	C686.990540,395.122467 697.383301,357.941620 707.937256,320.806610 
	C713.986633,299.521423 720.151917,278.267303 726.498596,257.069122 
	C731.452393,240.523239 747.137085,232.024811 761.591309,232.790848 
	C777.503845,233.634201 790.708374,244.575134 795.083008,260.487213 
	C804.521301,294.817413 813.842834,329.179718 823.308777,363.502228 
	C835.917358,409.219513 848.610901,454.913361 861.285645,500.612366 
	C863.355042,508.073395 863.399231,507.898010 871.122253,508.001495 
	C879.939270,508.119598 888.781921,507.323608 897.573059,508.547913 
	C908.838135,510.116791 917.184937,519.723816 916.672241,530.481140 
	C916.132935,541.795044 906.758911,551.058472 895.121582,551.366211 
	C886.297180,551.599609 877.451538,551.613770 868.633606,551.264587 
	C864.166931,551.087646 862.012634,552.709900 860.761902,556.901794 
	C854.385559,578.272766 847.777100,599.574341 841.328491,620.923950 
	C826.794128,669.043457 811.924622,717.062683 798.193298,765.422791 
	C796.058655,772.940857 793.664001,780.376648 788.449036,786.576721 
	C771.787354,806.385925 739.812683,802.940430 727.821411,779.951660 
	C722.294861,769.356323 720.282776,757.580444 716.754089,746.327820 
	C706.043396,712.173157 695.718750,677.897583 685.201233,643.682129 
	C678.794983,622.841187 672.305603,602.025635 665.865662,581.195007 
	C664.873779,577.986633 663.526794,574.946045 661.547974,572.233337 
	C656.859070,565.805603 650.564453,562.499939 642.577332,563.519287 
	C635.061768,564.478394 630.112000,569.185974 627.814209,576.139893 
	C623.740967,588.467102 619.968933,600.901794 616.387024,613.382202 
	C597.467773,679.301208 578.624146,745.241943 559.812561,811.191772 
	C556.162537,823.988098 552.929626,836.904236 549.216248,849.681396 
	C545.502747,862.458740 538.316650,872.535339 525.339172,877.294861 
	C504.460510,884.952148 482.133575,872.955750 475.987335,850.208679 
	C464.135803,806.346985 451.944580,762.581726 439.477295,718.893799 
	C431.209503,689.921814 422.556274,661.059753 414.077911,632.147827 
	C409.534943,616.655823 405.028870,601.152954 400.431641,585.677124 
	C399.437378,582.330139 398.303345,579.000610 396.921082,575.797974 
	C393.597504,568.097290 386.164825,562.896179 378.617340,563.411072 
	C370.193024,563.985901 364.290741,568.571228 361.241669,576.393860 
	C358.825531,582.592712 356.711700,588.924194 354.766449,595.289368 
	C340.218384,642.893494 325.756287,690.523926 311.242065,738.138367 
	C307.603363,750.075256 303.895386,761.991211 300.174988,773.903015 
	C298.407379,779.562378 295.466705,784.544800 290.994019,788.994995 
M468.500000,507.898071 
	C505.826752,507.866638 543.153564,507.853271 580.480286,507.787659 
	C587.514832,507.775269 588.482239,506.528412 586.680542,499.734924 
	C578.538391,469.033508 570.498230,438.303619 562.115784,407.667633 
	C545.867249,348.282898 529.598572,288.904999 514.518555,229.209030 
	C514.210632,227.990128 514.113770,226.521729 512.390808,226.124908 
	C510.784973,227.370956 510.787231,229.339569 510.329041,231.032669 
	C505.983612,247.090210 501.689301,263.161652 497.415253,279.238434 
	C486.301453,321.043304 475.242889,362.862915 464.089874,404.657318 
	C455.512054,436.801788 446.799347,468.910217 438.207825,501.051086 
	C436.640320,506.915131 437.359467,507.770691 443.504822,507.837860 
	C451.502472,507.925293 459.501556,507.884949 468.500000,507.898071 
M497.338257,760.271118 
	C502.206757,777.403381 507.075256,794.535706 512.041931,812.013550 
	C514.117920,810.370972 514.281738,808.683838 514.724670,807.103943 
	C524.731201,771.406006 534.686707,735.693665 544.789185,700.022888 
	C553.942139,667.704895 563.253540,635.431885 572.504700,603.141785 
	C576.672607,588.594055 580.878601,574.057312 585.037292,559.507019 
	C586.688965,553.728271 585.656311,552.343323 579.610779,552.059631 
	C578.447571,552.005005 577.280273,552.036194 576.114868,552.029297 
	C541.830627,551.825745 507.546509,551.604187 473.262146,551.430542 
	C463.618713,551.381714 453.973724,551.405640 444.331055,551.525879 
	C438.612305,551.597229 437.918579,552.589417 439.416321,558.063232 
	C441.565796,565.919006 443.738068,573.769287 445.990509,581.596008 
	C463.054016,640.887939 480.139496,700.173523 497.338257,760.271118 
M753.499146,508.056793 
	C771.478699,508.191162 789.458374,508.315491 807.437805,508.464661 
	C815.073120,508.528015 815.904297,507.514374 813.882141,500.023041 
	C796.674377,436.274628 779.453186,372.529877 762.190735,308.796265 
	C761.798340,307.347229 761.966675,305.313934 759.778992,304.957794 
	C758.497803,305.628967 758.477356,306.856567 758.150879,307.962341 
	C739.124756,372.410431 721.666748,437.299255 703.609009,502.019409 
	C702.172485,507.168060 702.701294,507.888153 708.033203,507.920197 
	C722.855042,508.009308 737.677307,508.016449 753.499146,508.056793 
M276.176117,339.199768 
	C272.894775,327.767914 270.152313,316.161896 265.996613,304.610718 
	C263.413757,306.573120 263.301819,308.696655 262.800415,310.555267 
	C245.608109,374.283752 228.452393,438.022125 211.310135,501.764099 
	C209.753799,507.551147 210.048965,507.914429 216.279205,507.922760 
	C249.419754,507.966980 282.560333,507.994843 315.700928,507.996124 
	C321.956024,507.996368 323.018250,506.614227 321.357513,500.430054 
	C319.286591,492.718414 317.018097,485.060059 314.866211,477.369934 
	C302.050537,431.571014 289.243866,385.769562 276.176117,339.199768 
M801.744812,596.337219 
	C805.295105,584.205811 808.825989,572.068604 812.403137,559.945129 
	C814.462219,552.966492 813.554382,551.499817 806.354309,551.488953 
	C774.900024,551.441406 743.445496,551.449280 711.991272,551.537292 
	C704.696899,551.557678 704.039185,552.446472 706.163818,559.418152 
	C723.373840,615.889526 740.651855,672.340271 757.929504,728.791016 
	C758.340576,730.134033 758.355713,731.927979 761.124817,731.916199 
	C774.565552,687.099365 788.058350,642.108643 801.744812,596.337219 
M319.865143,556.915894 
	C320.951233,554.161438 319.631531,552.675293 317.078979,552.290771 
	C313.964233,551.821350 310.798828,551.457947 307.654449,551.451050 
	C277.515503,551.385315 247.376358,551.406860 217.237274,551.397400 
	C211.563873,551.395630 210.589050,552.693542 212.359070,557.920776 
	C212.945618,559.652954 213.531052,561.387146 214.050247,563.140198 
	C230.254837,617.854553 246.442230,672.574097 262.689270,727.275818 
	C263.209961,729.028870 263.196320,731.358643 266.352020,732.131836 
	C284.130615,673.938599 301.898499,615.780396 319.865143,556.915894 
z"/>
</svg>