<svg version="1.1" id="Layer_1" xmlns="http://www.w3.org/2000/svg" xmlns:xlink="http://www.w3.org/1999/xlink" x="0px" y="0px"
	 width="48px" height="48px" viewBox="0 0 1024 1024" enable-background="new 0 0 1024 1024" xml:space="preserve">
<path fill="#fff" opacity="1.000000" stroke="none" 
	d="
M410.548401,627.597412 
	C409.048798,592.177063 407.536194,557.220886 402.049652,522.595825 
	C401.271118,517.682434 399.911346,512.853088 398.659607,508.026642 
	C398.132660,505.994781 397.187592,504.071320 396.091949,501.208527 
	C392.500610,507.813110 391.215790,514.221069 390.034271,520.622925 
	C386.214966,541.316650 384.927399,562.263367 383.958832,583.238281 
	C383.480652,593.592651 377.376068,602.009949 368.300873,604.872314 
	C354.652802,609.176819 340.518463,598.737976 339.362946,583.390625 
	C338.487549,571.763428 337.962067,560.107727 336.949127,548.493652 
	C335.791687,535.222778 334.455902,521.949341 330.139832,509.214478 
	C329.554199,507.486511 328.846863,505.796021 328.115723,504.123199 
	C327.867645,503.555603 327.372498,503.095978 326.650482,502.134613 
	C323.157257,507.642273 322.353149,513.478943 321.874634,519.305115 
	C321.259033,526.799927 319.074585,533.321289 312.477356,537.687866 
	C299.044983,546.578247 280.607239,538.260559 279.342407,522.156189 
	C278.182220,507.384491 278.406189,492.486542 279.363037,477.697906 
	C280.083649,466.559540 289.176819,458.784607 300.079620,458.544922 
	C311.046509,458.303802 319.239044,465.673157 321.023895,477.284393 
	C322.182648,484.822540 322.652924,492.537018 326.357208,499.706085 
	C329.468628,497.554474 330.112213,494.209991 331.063934,491.135437 
	C334.837677,478.944611 335.780426,466.278687 336.739746,453.676636 
	C337.814362,439.560669 338.357452,425.400146 338.922302,411.250671 
	C339.432770,398.462372 348.611298,389.039795 361.046326,388.889465 
	C373.140198,388.743317 383.249786,398.281036 384.024902,410.679565 
	C385.220184,429.798950 385.774353,448.960358 388.004608,468.010498 
	C389.072815,477.134583 390.569580,486.146790 393.854401,494.774506 
	C394.431458,496.290131 394.696472,497.997925 396.446777,499.319763 
	C400.705536,492.263031 402.033234,484.452789 403.000763,476.656921 
	C407.519806,440.244019 409.413910,403.649567 410.026978,366.983887 
	C410.135529,360.492035 410.911469,354.400269 415.386017,349.272308 
	C421.859802,341.853149 430.878601,339.137848 439.700958,342.090759 
	C448.852020,345.153625 455.495544,353.778870 455.687775,364.128387 
	C456.046875,383.461487 457.131653,402.757263 458.123932,422.057343 
	C459.252625,444.011414 460.124756,466.009644 465.053986,487.565460 
	C465.974976,491.593079 466.883575,495.650787 469.470642,499.556488 
	C473.945038,491.868103 474.905823,483.572510 475.951599,475.417877 
	C478.857452,452.758698 479.476471,429.917145 480.722900,407.135864 
	C482.788910,369.375183 485.053406,331.624207 486.381439,293.822845 
	C486.991577,276.455536 499.499939,266.849182 514.998291,271.065338 
	C523.761108,273.449158 530.451050,281.684753 530.650635,291.419373 
	C531.337524,324.919769 533.661743,358.331085 535.975403,391.737549 
	C537.920166,419.817108 538.186340,448.018677 541.919678,475.968750 
	C542.757080,482.238617 543.929993,488.460724 545.893372,494.493927 
	C546.438232,496.168060 546.558533,498.146759 548.657104,499.239990 
	C552.811768,491.935028 554.034424,483.863647 555.019043,475.797424 
	C558.575256,446.665070 559.798401,417.366211 560.977295,388.068756 
	C561.312256,379.744110 561.473816,371.412628 561.780945,363.086700 
	C562.243713,350.542755 571.429138,341.287781 583.637390,340.994080 
	C595.210571,340.715668 605.527466,349.829224 606.404236,361.812164 
	C607.254883,373.436523 607.278687,385.118774 607.930847,396.760773 
	C609.439819,423.701202 610.157227,450.706970 613.863586,477.480438 
	C614.877808,484.807007 616.571411,492.019440 620.022888,499.418488 
	C624.535889,492.121796 625.758667,484.614594 627.005981,477.129028 
	C630.683899,455.055328 631.350708,432.712616 632.943726,410.451263 
	C633.830261,398.063293 642.279541,389.416107 654.147278,388.501862 
	C664.505798,387.703918 675.797546,396.299194 677.566956,407.091766 
	C678.611938,413.465912 678.510132,420.038147 678.780762,426.527252 
	C679.489136,443.511749 680.505249,460.473236 683.010986,477.300049 
	C684.160034,485.015961 686.019348,492.564636 690.425903,499.855469 
	C694.952576,494.707428 694.745300,488.677887 695.809265,483.088654 
	C696.243530,480.807373 696.274536,478.449615 696.702820,476.166809 
	C698.909607,464.405792 706.411743,458.243713 717.876709,458.684631 
	C728.327271,459.086578 737.325500,467.321106 737.722229,478.160400 
	C738.258118,492.804688 738.243469,507.494263 737.768616,522.141846 
	C737.431946,532.526184 728.365906,540.670959 717.607544,541.504883 
	C707.877014,542.259155 699.108398,535.416382 696.731750,525.091736 
	C694.914429,517.196472 695.167297,508.831055 691.105774,500.935822 
	C689.380554,502.958160 688.661804,505.233856 687.882080,507.467773 
	C683.173767,520.957458 681.584778,535.033203 680.331360,549.133301 
	C679.328552,560.414429 678.631165,571.730042 678.109619,583.044617 
	C677.566650,594.824341 669.164185,604.236267 657.470825,605.650391 
	C647.320679,606.877930 637.103333,599.540405 634.115845,588.561584 
	C632.221069,581.598511 632.889526,574.322815 632.103333,567.210083 
	C630.165466,549.679565 629.360718,531.995117 624.977905,514.807495 
	C623.874084,510.478973 622.294861,506.271637 620.621094,501.027802 
	C617.228882,507.258423 616.040344,513.158081 615.015747,519.036072 
	C611.577026,538.763000 610.362427,558.723145 608.942993,578.665283 
	C607.664734,596.621643 607.177063,614.606018 606.432800,632.583984 
	C606.002930,642.969849 597.682129,651.614685 587.358398,653.457520 
	C578.407593,655.055359 568.135193,649.043762 564.051453,639.778442 
	C562.190735,635.556702 562.132446,631.042786 561.991882,626.537903 
	C560.947144,593.056213 559.220886,559.618896 555.040344,526.357178 
	C553.981445,517.932556 552.421570,509.597992 548.346436,501.398590 
	C544.349487,509.316315 542.917114,517.478027 541.923584,525.708801 
	C538.966980,550.202332 537.611755,574.834473 536.164612,599.441895 
	C534.149841,633.699036 531.176758,667.905945 530.756714,702.255920 
	C530.608765,714.354492 520.111694,724.309082 508.580444,724.262939 
	C496.966980,724.216553 487.190277,714.804932 486.845398,702.500427 
	C485.710388,662.010986 482.712585,621.633545 479.869263,581.247498 
	C478.349365,559.659058 477.940765,537.961487 474.080658,516.581726 
	C473.162842,511.498169 471.652344,506.579803 469.409790,501.324249 
	C465.398621,508.684662 464.224304,516.405701 463.077209,524.054260 
	C458.374695,555.408569 456.622711,587.001099 455.624603,618.657227 
	C455.416016,625.273804 456.278381,632.083435 453.856232,638.462646 
	C449.721191,649.353027 440.030609,655.216309 429.618378,653.422607 
	C418.574249,651.519958 411.270142,643.079224 410.701172,631.555908 
	C410.643707,630.392029 410.610138,629.227051 410.548401,627.597412 
z"/>
<path fill="#fff" opacity="1.000000" stroke="none" 
	d="
M367.976532,777.053833 
	C335.298004,760.714905 306.355103,739.915466 282.004669,713.070068 
	C236.561630,662.970886 207.911514,604.812927 199.313690,537.424622 
	C194.156311,497.002014 196.591583,456.873535 207.848129,417.622253 
	C234.485596,324.738098 291.209351,256.836975 378.262207,214.666458 
	C406.625031,200.926819 436.876160,193.197586 468.001495,188.787949 
	C480.925720,186.956909 491.981934,194.932007 493.771118,207.230194 
	C495.397125,218.406723 486.464874,229.273758 473.887665,231.120728 
	C438.467987,236.322113 405.493896,248.433990 375.068604,267.087891 
	C312.186127,305.641449 270.287018,360.543365 251.354813,431.809845 
	C231.601349,506.167786 244.058945,576.348267 284.700043,641.126099 
	C327.559143,709.439087 389.848053,749.419373 469.192017,763.015381 
	C477.317810,764.407715 484.745087,766.870422 489.715393,773.978149 
	C494.369812,780.634094 495.661560,787.819702 491.731964,795.162659 
	C487.767914,802.570007 481.457336,807.248230 472.850861,806.966248 
	C461.012970,806.578430 449.435913,803.899658 437.875793,801.476440 
	C413.649780,796.398132 390.575531,787.956238 367.976532,777.053833 
z"/>
<path fill="#fff" opacity="1.000000" stroke="none" 
	d="
M710.012085,736.011475 
	C663.626770,775.338440 610.078064,797.695068 550.670044,806.815613 
	C545.863281,807.553528 541.090393,807.508850 536.479675,805.357300 
	C527.644775,801.234619 522.367859,793.069946 523.173767,784.407837 
	C524.022522,775.285156 530.848206,766.708191 540.071838,764.972961 
	C555.465271,762.076843 570.750732,758.918945 585.670410,754.072021 
	C655.884338,731.262207 708.471436,687.051636 742.725464,621.977783 
	C765.088501,579.493652 777.174133,533.930237 773.980103,485.382629 
	C769.117737,411.475800 739.381104,349.147705 684.419739,299.509460 
	C644.598022,263.544495 597.949951,240.724335 544.822937,231.695923 
	C540.336487,230.933487 536.150635,229.483627 532.439392,226.733337 
	C524.275391,220.683121 521.024841,210.566681 524.575500,201.987656 
	C528.535522,192.419525 537.615112,186.897858 547.724304,188.389130 
	C567.341614,191.283051 586.729614,195.185760 605.492126,201.850510 
	C658.770752,220.776001 705.034729,250.099609 742.203796,293.178253 
	C783.114990,340.594025 808.777710,395.066986 816.558228,457.243439 
	C826.302551,535.113708 809.675293,607.148438 766.060425,672.756531 
	C750.355896,696.380066 731.697754,717.272461 710.012085,736.011475 
z"/>
<path fill="#fff" opacity="1.000000" stroke="none" 
	d="
M822.658325,346.373840 
	C808.897095,319.313568 791.289124,295.328339 772.136658,272.399597 
	C765.309692,264.226562 764.297485,257.199066 768.803467,249.060989 
	C774.153748,239.397995 787.022095,236.509796 795.996155,242.953156 
	C800.255371,246.011261 803.264771,250.258591 806.632080,254.157867 
	C842.284729,295.442230 868.982849,341.869049 883.377319,394.531128 
	C917.059326,517.756287 895.181519,630.486206 817.244751,732.031494 
	C811.766235,739.169678 806.098938,746.170593 799.780640,752.580750 
	C791.263855,761.221558 780.288757,761.686707 772.236206,753.998840 
	C764.095459,746.226807 763.977600,735.559509 771.986450,726.390930 
	C799.843506,694.500244 822.214783,659.141907 836.845276,619.385742 
	C862.861938,548.689209 866.785461,476.869965 845.673645,404.095856 
	C839.903137,384.204498 832.377808,365.062408 822.658325,346.373840 
z"/>
<path fill="#fff" opacity="1.000000" stroke="none" 
	d="
M178.689621,379.765930 
	C159.799377,430.707031 153.743454,482.846191 159.616364,536.378479 
	C167.206406,605.562805 194.239243,666.446899 238.474991,719.922729 
	C241.442047,723.509521 244.389526,727.163940 246.878220,731.083984 
	C251.825424,738.876526 250.525833,747.955017 243.922546,754.304749 
	C237.334778,760.639465 228.408691,761.339539 220.610870,756.112000 
	C217.394867,753.955994 214.802063,751.118652 212.305038,748.214661 
	C170.183075,699.228638 140.962540,643.662109 127.051483,580.366943 
	C118.450195,541.231201 114.894104,501.671692 119.278381,461.724762 
	C124.934753,410.187225 139.559662,361.437378 165.351685,316.161835 
	C179.775436,290.842255 197.287888,267.886230 216.481018,246.121811 
	C221.740494,240.157730 228.566666,237.799988 236.363525,240.214249 
	C243.892334,242.545517 248.050797,248.121292 249.675400,255.686386 
	C251.026474,261.977814 248.519852,267.096649 244.624985,271.738708 
	C232.307083,286.419678 220.366852,301.383942 210.087952,317.599243 
	C197.669769,337.189331 186.868332,357.598969 178.689621,379.765930 
z"/>
</svg>